<?xml version="1.0" encoding="utf-8"?>
<!-- Generator: Adobe Illustrator 21.1.0, SVG Export Plug-In . SVG Version: 6.00 Build 0)  -->
<svg version="1.1" id="Layer_1" xmlns="http://www.w3.org/2000/svg" xmlns:xlink="http://www.w3.org/1999/xlink" x="0px" y="0px"
	 viewBox="0 0 200 200" style="enable-background:new 0 0 200 200;" xml:space="preserve">
<style type="text/css">
	.st0{fill:#FFFFFF;}
	.st1{clip-path:url(#SVGID_2_);}
	.st2{fill:#F05455;}
	.st3{fill:#C64445;}
	.st4{fill:#C2288F;}
	.st5{fill:#1D5194;}
	.st6{fill:url(#SVGID_3_);}
	.st7{opacity:0.29;}
</style>
<g>
	<path class="st2" d="M200,105.4c0,44.5-44.8,80.6-100,80.6c-20.9,0-40.3-5.2-56.4-14c-3.6-2-9,14.6-25,14c0,0,9.8-24.2,7.5-26.3
		C9.9,145.4,0,126.3,0,105.4c0-44.5,44.8-80.6,100-80.6S200,60.9,200,105.4z"/>
</g>
<g>
	<g>
		<path class="st0" d="M98.1,148.8c-5.7,0-10.6-1-14.9-3.1c-4.3-2.1-7.8-4.8-10.6-8.3c-2.8-3.5-5-7.5-6.4-12.1
			c-1.4-4.6-2.1-9.3-2.1-14.4c0-3.4,0.3-7,1-10.7c0.7-3.8,1.7-7.5,3-11.1s3.1-7.1,5.1-10.4c2.1-3.3,4.5-6.2,7.2-8.7
			c2.7-2.5,5.8-4.5,9.2-6c3.4-1.5,7.2-2.2,11.4-2.2c3.4,0,6.5,0.5,9.4,1.6c2.9,1.1,5.4,2.6,7.6,4.6c2.1,2,3.8,4.3,5,7.1
			c1.2,2.8,1.8,5.9,1.8,9.3c0,3.7-0.9,7.5-2.8,11.2c-1.8,3.7-4.4,7.3-7.7,10.6c-3.3,3.3-7.1,6.3-11.6,8.9c-4.5,2.6-9.9,4.5-9.9,4.5
			c-2.6,0.9-3.9,3-2.9,4.6c0,0,0,0,0.9,1.1c0.9,1.1,1.8,1.9,2.7,2.5c0.9,0.6,1.9,1,2.9,1.3c1,0.2,2.1,0.4,3.2,0.4
			c3.6,0,7.4-0.7,11.5-2.2c4-1.5,7.9-3.3,11.7-5.4c3.8-2.2,7.4-4.5,10.8-7.1c3.4-2.6,4.9-3.9,4.9-3.9c2-1.8,5.3-1.7,7.2,0.2l4.8,4.9
			c1.9,2,1.8,5.1-0.2,7l-9.4,8.1c-2.2,1.7-5.8,4.3-8.1,5.9c0,0-1.2,0.8-4.2,2.6c-3,1.8-6.1,3.3-9.4,4.7c-3.3,1.4-6.7,2.4-10.2,3.3
			C105.3,148.4,101.7,148.8,98.1,148.8z M86.1,103.3c0,1.6,2,2.7,4.5,2.4c0,0,0,0,2.6-1.1c2.6-1.1,5-2.6,7.2-4.3
			c2.2-1.8,4.1-3.7,5.6-5.7c1.5-2.1,2.3-4,2.3-6c0-2.8-0.6-7.2-3.3-8.8c-2.4-1.4-6.2-0.3-8.5,0.9c-1.8,1-3.4,2.2-4.6,3.8
			c-1.2,1.5-2.2,3.3-3,5.3c-0.8,2-1.3,3.9-1.7,5.9c-0.4,2-0.7,3.9-0.8,5.8C86.1,103.3,86.1,103.3,86.1,103.3z"/>
	</g>
	<g>
		<path class="st0" d="M83.8,109.5c-9.8,1.7-44.4,3.1-48,7.1c-1.4,1.6,2.2,11,2.2,11c1,2.6,4,4.3,6.7,3.9c0,0,33.9-5.2,41-9.3"/>
	</g>
	<g>
		<g>
			<g>
				<path class="st0" d="M157,134.2c-0.6,2.7-3.3,4.4-6,3.8l-3.6-0.8c-2.7-0.6-4.4-3.3-3.8-6l2.5-11c0.6-2.7-1.1-4.8-3.9-4.8
					l-14.2,0.2c-2.7,0-5-2.2-5.1-4.9l-0.1-3.7c0-2.7,2.2-5,4.9-5.1l31.6-0.5c2.7,0,4.5,2.1,3.9,4.8L157,134.2z"/>
			</g>
		</g>
	</g>
</g>
</svg>
